# xmcd
#
# Track frame offsets: 
#        150
#        19012
#        37227
#        54654
#        71287
#        90534
#        105939
#        122380
#        137218
#        159502
#        177523
#        195271
#
# Disc length: 2842 seconds
#
# Revision: 1
# Processed by: cddbd v1.5.2PL0 Copyright (c) Steve Scherf et al.
# Submitted via: ExactAudioCopyFreeDBPlugin 1.0
#
DISCID=960b180c
DTITLE=Barry White - The Best of Barry White: 20th Century Masters: th
DTITLE=e Millennium Collection
DYEAR=2003
DGENRE=Soul
TTITLE0=I'm Gonna Love You Just A Little More Baby
TTITLE1=Never, Never Gonna Give You Up
TTITLE2=Can't Get Enough Of Your Love, Babe
TTITLE3=What Am I Gonna Do With You
TTITLE4=Let The Music Play
TTITLE5=It's Ecstasy When You Lay Down Next To Me
TTITLE6=Playing Your Game, Baby
TTITLE7=Oh What A Night For Dancing
TTITLE8=Love Makin' Music
TTITLE9=Sho' You Right
TTITLE10=Practice What You Preach
TTITLE11=Staying Power
EXTD=
EXTT0=
EXTT1=
EXTT2=
EXTT3=
EXTT4=
EXTT5=
EXTT6=
EXTT7=
EXTT8=
EXTT9=
EXTT10=
EXTT11=
PLAYORDER=
